<svg xmlns="http://www.w3.org/2000/svg" version="1.1" xmlns:xlink="http://www.w3.org/1999/xlink" width="512" height="512" x="0" y="0" viewBox="0 0 66 66" style="enable-background:new 0 0 512 512" xml:space="preserve" class=""><g><path d="M63.05 48.03h-2.61V15.36c0-3.6-2.93-6.53-6.53-6.53H12.09c-3.6 0-6.53 2.93-6.53 6.53v32.67H2.95c-.72 0-1.31.59-1.31 1.31v1.31c0 3.6 2.93 6.53 6.53 6.53h49.66c3.6 0 6.53-2.93 6.53-6.53v-1.31c0-.73-.58-1.31-1.31-1.31zM8.17 15.36c0-2.16 1.76-3.92 3.92-3.92h41.82c2.16 0 3.92 1.76 3.92 3.92v32.67H8.17zm49.66 39.2H8.17c-2.16 0-3.92-1.76-3.92-3.92h57.49a3.911 3.911 0 0 1-3.91 3.92z" fill="#ffffff" opacity="1" data-original="#000000"></path><path d="M53.91 14.05H12.09c-.72 0-1.31.59-1.31 1.31v28.75c0 .72.58 1.31 1.31 1.31h41.82c.72 0 1.31-.59 1.31-1.31V15.36c-.01-.72-.59-1.31-1.31-1.31zM29.08 27.12c0-2.16 1.76-3.92 3.92-3.92s3.92 1.76 3.92 3.92-1.76 3.92-3.92 3.92-3.92-1.76-3.92-3.92zM22.63 42.8c.64-5.15 5.05-9.15 10.37-9.15s9.73 4 10.37 9.15zm29.97 0H46c-.5-5.06-3.91-9.26-8.52-10.95a6.492 6.492 0 0 0 2.05-4.73c0-3.6-2.93-6.53-6.53-6.53s-6.53 2.93-6.53 6.53c0 1.86.79 3.54 2.05 4.73-4.61 1.69-8.02 5.89-8.52 10.95h-6.6V16.67h39.2z" fill="#ffffff" opacity="1" data-original="#000000"></path></g></svg>