<?xml version="1.0" encoding="UTF-8"?><svg id="Capa_2" xmlns="http://www.w3.org/2000/svg" viewBox="0 0 72.58 62.68"><defs><style>.cls-1{fill:#fff;stroke-width:0px;}</style></defs><g id="Instrucciones_2"><path class="cls-1" d="M65.98,33.16C67.54,15.65,54.12-.1,36.29,0,19.92,0,6.6,13.32,6.6,29.69v3.47C2.76,33.95,0,37.32,0,41.24v13.2c0,4.55,3.7,8.25,8.25,8.25h6.6c.91,0,1.65-.74,1.65-1.65-.02-3.56.01-28.48,0-31.34,0-10.92,8.88-19.79,19.79-19.79s19.79,8.88,19.79,19.79c-.02,2.73.02,27.93,0,31.34,0,.91.74,1.65,1.65,1.65h6.6c4.55,0,8.25-3.7,8.25-8.25v-13.2c0-3.92-2.76-7.29-6.6-8.08ZM13.2,59.38h-4.95c-2.73,0-4.95-2.22-4.95-4.95v-13.2c0-2.73,2.22-4.95,4.95-4.95h4.95v23.09ZM36.29,6.6c-14.28,0-24.42,12.46-23.09,26.39h-3.3c-1.46-15.63,10.44-29.79,26.39-29.69,15.95-.09,27.85,14.06,26.39,29.69h-3.3c1.33-13.94-8.81-26.39-23.09-26.39ZM69.28,54.44c0,2.73-2.22,4.95-4.95,4.95h-4.95v-23.09h4.95c2.73,0,4.95,2.22,4.95,4.95v13.2Z"/><path class="cls-1" d="M37.94,59.38v-23.09c0-2.15-3.29-2.16-3.3,0v23.09c0,2.15,3.29,2.16,3.3,0ZM29.69,54.44v-13.2c0-2.15-3.29-2.16-3.3,0v13.2c0,2.15,3.29,2.16,3.3,0ZM46.19,54.44v-13.2c0-2.15-3.29-2.16-3.3,0v13.2c0,2.15,3.29,2.16,3.3,0Z"/></g></svg>