<?xml version="1.0" encoding="UTF-8"?><svg id="Capa_2" xmlns="http://www.w3.org/2000/svg" viewBox="0 0 54.42 60.38"><defs><style>.cls-1{fill:#fff;stroke-width:0px;}</style></defs><g id="Instrucciones_2"><path class="cls-1" d="M33.79,60.38H7.18v-4.77c0-6.59-1.55-13.15-4.49-18.98C.96,33.19.05,29.49,0,25.62-.18,12.21,10.56.73,23.92.04c7.02-.37,13.68,2.09,18.76,6.91,5.03,4.77,7.82,11.2,7.88,18.12l3.67,11.01c.38,1.15.2,2.38-.51,3.36s-1.81,1.55-3.03,1.55h-2.52v4.64c0,3.38-2.75,6.13-6.13,6.13h-8.19l-.06,8.62ZM9.86,57.69h21.27l.06-8.62h10.85c1.9,0,3.45-1.55,3.45-3.45v-7.33h5.2c.34,0,.65-.16.85-.44s.25-.62.14-.95l-3.81-11.42v-.22c0-6.26-2.5-12.08-7.04-16.39-4.54-4.31-10.5-6.5-16.77-6.17C12.12,3.34,2.52,13.6,2.68,25.59c.05,3.46.85,6.77,2.4,9.83,3.13,6.2,4.78,13.18,4.78,20.19v2.09Z"/><path class="cls-1" d="M38.59,34.39l-2.27-2.16c-1.97-1.88-4.37-2.02-5.06-2.02-2.65,0-4.42,1.42-5.06,2.02l-2.27,2.16V13.93l.42-.4c2.62-2.49,5.7-2.76,6.91-2.76,3.62,0,6.04,1.93,6.91,2.76l.42.4v20.46ZM26.62,15.11v13.57c1.19-.62,2.75-1.15,4.64-1.15.87,0,2.71.14,4.64,1.15v-13.56c-.84-.68-2.44-1.66-4.64-1.66-.64,0-2.76.13-4.64,1.66Z"/><path class="cls-1" d="M26.62,34.39l-2.27-2.16c-1.97-1.88-4.37-2.02-5.06-2.02-2.72,0-4.56,1.55-5.06,2.02l-2.27,2.16V13.93l.42-.4c2.62-2.49,5.7-2.76,6.91-2.76,3.62,0,6.04,1.93,6.91,2.76l.42.4v20.46ZM14.65,15.11v13.57c1.19-.62,2.75-1.15,4.64-1.15.87,0,2.71.14,4.64,1.15v-13.56c-.8-.64-2.43-1.66-4.64-1.66-.64,0-2.76.13-4.64,1.66Z"/></g></svg>