<?xml version="1.0" encoding="UTF-8"?><svg id="Capa_2" xmlns="http://www.w3.org/2000/svg" xmlns:xlink="http://www.w3.org/1999/xlink" viewBox="0 0 64.95 64.95"><defs><style>.cls-1{fill:none;}.cls-1,.cls-2,.cls-3{stroke-width:0px;}.cls-2{fill:#fff;}.cls-4{clip-path:url(#clippath);}.cls-3{fill:#fdfeff;}</style><clipPath id="clippath"><rect class="cls-1" width="64.95" height="64.95"/></clipPath></defs><g id="Instrucciones_2"><g class="cls-4"><path class="cls-2" d="M25.78,63.68h-1.84v-8.91h5.11c1.59,0,2.88-1.29,2.88-2.88s-1.29-2.88-2.88-2.88h-5.11v-7.99H1.27v-1.84h24.52v7.99h3.27c2.61,0,4.73,2.12,4.73,4.73s-2.12,4.73-4.73,4.73h-3.27v7.07Z"/><path class="cls-2" d="M49.38,64.6H.35V15.57h7.99v-2.88c0-2.61,2.12-4.73,4.73-4.73s4.73,2.12,4.73,4.73v2.88h7.99v9.83h-5.11c-1.59,0-2.88,1.29-2.88,2.88s1.29,2.88,2.88,2.88h5.11v7.99h6.15v-2.88c0-2.61,2.12-4.73,4.73-4.73s4.73,2.12,4.73,4.73v2.88h7.99v25.44ZM2.19,62.76h45.35v-21.75s-7.99,0-7.99,0v-4.73c0-1.59-1.29-2.88-2.88-2.88s-2.88,1.29-2.88,2.88v4.73h-9.83v-7.99h-3.27c-2.61,0-4.73-2.12-4.73-4.73s2.12-4.73,4.73-4.73h3.27v-6.15h-7.99v-4.73c0-1.59-1.29-2.88-2.88-2.88s-2.88,1.29-2.88,2.88v4.73H2.19v45.35Z"/><path class="cls-3" d="M40.09,1.27v7.99h-3.81c-2.1,0-3.81,1.7-3.81,3.81s1.7,3.81,3.81,3.81h3.81v7.99h7.99v-4.19c0-2.1,1.7-3.81,3.81-3.81s3.81,1.7,3.81,3.81v4.19h7.99V1.27h-23.6Z"/><path class="cls-2" d="M64.6,25.78h-9.83v-5.11c0-1.59-1.29-2.88-2.88-2.88s-2.88,1.29-2.88,2.88v5.11h-9.83v-7.99h-2.88c-2.61,0-4.73-2.12-4.73-4.73s2.12-4.73,4.73-4.73h2.88V.35h25.44v25.44ZM56.61,23.94h6.15V2.19h-21.75v7.99h-4.73c-1.59,0-2.88,1.29-2.88,2.88s1.29,2.88,2.88,2.88h4.73v7.99h6.15v-3.27c0-2.61,2.12-4.73,4.73-4.73s4.73,2.12,4.73,4.73v3.27Z"/></g></g></svg>