<?xml version="1.0" encoding="UTF-8"?><svg id="Capa_2" xmlns="http://www.w3.org/2000/svg" viewBox="0 0 72.51 59.62"><defs><style>.cls-1{fill:#fff;stroke-width:0px;}</style></defs><g id="Instrucciones_2"><circle class="cls-1" cx="36.11" cy="54.95" r="4.67"/><path class="cls-1" d="M71.75,15.49C62.44,5.5,49.83,0,36.25,0,22.67,0,10.07,5.5.76,15.49c-1.07,1.14-1,2.94.14,4,1.14,1.07,2.94,1,4-.14C13.13,10.52,24.26,5.66,36.25,5.66c11.99,0,23.12,4.86,31.35,13.69.54.58,1.29.9,2.07.9.69,0,1.38-.25,1.93-.76,1.14-1.07,1.21-2.86.14-4Z"/><path class="cls-1" d="M61.35,27.18c-6.88-6.93-15.79-10.75-25.09-10.75-9.3,0-18.22,3.82-25.09,10.75-1.1,1.11-1.09,2.9.02,4.01s2.9,1.09,4.01-.02c5.81-5.85,13.29-9.08,21.07-9.08,7.78,0,15.26,3.22,21.07,9.08.53.54,1.26.84,2.01.84.75,0,1.47-.29,2-.82,1.11-1.1,1.12-2.9.02-4.01h0ZM50.01,38.91c-3.68-3.65-8.97-5.92-13.78-5.92h-.21c-4.82,0-10.1,2.27-13.79,5.92-1.11,1.1-1.12,2.89-.02,4.01.53.54,1.26.84,2.01.84.75,0,1.46-.29,1.99-.82,2.62-2.6,6.47-4.28,9.8-4.28h.21c3.33,0,7.18,1.68,9.8,4.28,1.11,1.1,2.9,1.09,4.01-.02,1.1-1.11,1.09-2.9-.02-4.01h0Z"/></g></svg>